<!-- <?xml version="1.0" encoding="utf-8"?> 
<svg viewBox="214.8537 201.1685 63.0475 59.3744" width="63.048" height="59.374" xmlns="http://www.w3.org/2000/svg"> 
<g style="" transform="matrix(1.4451500177383423, 0, 0, 1.4451500177383423, -14.30130672454834, 43.43743896484375)"> 
<path d="M 165.86 88.53 Q 165.84 88.04 165.84 87.79 Q 165.84 86.34 166.25 85.29 Q 166.55 84.49 167.22 83.69 Q 167.72 83.1 168.99 81.97 Q 170.27 80.84 170.66 80.17 Q 171.04 79.5 171.04 78.71 Q 171.04 77.28 169.92 76.19 Q 168.8 75.1 167.17 75.1 Q 165.6 75.1 164.54 76.09 Q 163.49 77.07 163.16 79.16 L 160.63 78.86 Q 160.98 76.06 162.66 74.57 Q 164.35 73.08 167.13 73.08 Q 170.07 73.08 171.82 74.68 Q 173.57 76.28 173.57 78.55 Q 173.57 79.86 172.95 80.97 Q 172.34 82.07 170.55 83.66 Q 169.34 84.73 168.97 85.23 Q 168.61 85.74 168.43 86.39 Q 168.25 87.05 168.22 88.53 Z M 165.71 93.46 L 165.71 90.66 L 168.51 90.66 L 168.51 93.46 Z" transform="matrix(0.906307, -0.422619, 0.422619, 0.906307, -14.578923, 126.671814)" style="fill: rgb(51, 51, 51);"/> <path d="M 178.47 129.81 Q 178.46 129.32 178.46 129.07 Q 178.46 127.62 178.87 126.57 Q 179.17 125.78 179.84 124.97 Q 180.33 124.38 181.61 123.26 Q 182.89 122.13 183.27 121.46 Q 183.65 120.79 183.65 120 Q 183.65 118.56 182.53 117.47 Q 181.41 116.39 179.78 116.39 Q 178.21 116.39 177.16 117.37 Q 176.11 118.36 175.78 120.45 L 173.25 120.15 Q 173.59 117.34 175.28 115.85 Q 176.97 114.36 179.74 114.36 Q 182.68 114.36 184.43 115.96 Q 186.18 117.56 186.18 119.83 Q 186.18 121.14 185.57 122.25 Q 184.95 123.36 183.16 124.95 Q 181.96 126.01 181.59 126.52 Q 181.22 127.02 181.04 127.68 Q 180.86 128.34 180.84 129.81 Z M 178.32 134.75 L 178.32 131.95 L 181.12 131.95 L 181.12 134.75 Z" style="fill: rgb(51, 51, 51);"/> <path d="M 226.64 149.31 Q 226.62 148.82 226.62 148.57 Q 226.62 147.12 227.03 146.07 Q 227.33 145.27 228 144.47 Q 228.5 143.88 229.77 142.75 Q 231.05 141.62 231.43 140.95 Q 231.82 140.28 231.82 139.49 Q 231.82 138.06 230.7 136.97 Q 229.58 135.88 227.95 135.88 Q 226.38 135.88 225.32 136.87 Q 224.27 137.85 223.94 139.94 L 221.41 139.64 Q 221.76 136.84 223.44 135.35 Q 225.13 133.86 227.91 133.86 Q 230.85 133.86 232.6 135.46 Q 234.35 137.06 234.35 139.33 Q 234.35 140.64 233.73 141.75 Q 233.12 142.85 231.33 144.44 Q 230.12 145.51 229.75 146.01 Q 229.38 146.52 229.21 147.17 Q 229.03 147.83 229 149.31 Z M 226.49 154.24 L 226.49 151.44 L 229.29 151.44 L 229.29 154.24 Z" transform="matrix(0.906308, 0.422618, -0.422618, 0.906308, 42.885529, -94.842003)" 
/> 
</g> </svg> -->
<?xml version="1.0" encoding="iso-8859-1"?>
<!-- Uploaded to: SVG Repo, www.svgrepo.com, Generator: SVG Repo Mixer Tools -->
<svg height="800px" width="800px" version="1.1" id="Capa_1" xmlns="http://www.w3.org/2000/svg" xmlns:xlink="http://www.w3.org/1999/xlink" 
	 viewBox="0 0 281.232 281.232" xml:space="preserve" fill="currentColor">
<g>
	<path d="M231.634,79.976v-0.751C231.634,30.181,192.772,0,137.32,0c-31.987,0-57.415,9.018-77.784,22.98
		c-11.841,8.115-12.907,25.906-4.232,37.355l6.326,8.349c8.675,11.444,24.209,12.532,36.784,5.586
		c11.46-6.331,23.083-9.758,34-9.758c18.107,0,28.294,7.919,28.294,20.75v0.375c0,16.225-15.469,39.411-59.231,43.181l-1.507,1.697
		c-0.832,0.936,0.218,13.212,2.339,27.413l1.741,11.58c2.121,14.201,14.065,25.71,26.668,25.71s23.839-5.406,25.08-12.069
		c1.256-6.668,2.268-12.075,2.268-12.075C199.935,160.882,231.634,127.513,231.634,79.976z"/>
	<path d="M118.42,217.095c-14.359,0-25.993,11.64-25.993,25.999v12.14c0,14.359,11.64,25.999,25.993,25.999
		h22.322c14.359,0,25.999-11.64,25.999-25.999v-12.14c0-14.359-11.645-25.999-25.999-25.999H118.42z"/>
</g>
</svg>